<svg width="27" height="28" viewBox="0 0 27 28" fill="none" xmlns="http://www.w3.org/2000/svg">
<path d="M2.26856 9.57039H10.9352C11.8864 9.57039 12.6602 8.79653 12.6602 7.84539V2.42872C12.6602 1.47757 11.8864 0.703719 10.9352 0.703719H2.26856C1.31742 0.703719 0.543562 1.47757 0.543562 2.42872V7.84539C0.543562 8.79653 1.31742 9.57039 2.26856 9.57039ZM1.8269 2.42872C1.8269 2.18508 2.02574 1.98705 2.26856 1.98705H10.9352C11.178 1.98705 11.3769 2.18508 11.3769 2.42872V7.84539C11.3769 8.08903 11.178 8.28705 10.9352 8.28705H2.26856C2.02574 8.28705 1.8269 8.08903 1.8269 7.84539V2.42872ZM2.26855 26.9038H10.9352C11.8864 26.9038 12.6602 26.1299 12.6602 25.1788V13.2621C12.6602 12.311 11.8864 11.5371 10.9352 11.5371H2.26855C1.31741 11.5371 0.543555 12.311 0.543555 13.2621V25.1788C0.543555 26.1299 1.31741 26.9038 2.26855 26.9038ZM1.82689 13.2621C1.82689 13.0185 2.02574 12.8205 2.26855 12.8205H10.9352C11.178 12.8205 11.3769 13.0185 11.3769 13.2621V25.1788C11.3769 25.4224 11.178 25.6205 10.9352 25.6205H2.26855C2.02574 25.6205 1.82689 25.4224 1.82689 25.1788V13.2621ZM16.3519 26.9036H25.0185C25.9697 26.9036 26.7435 26.1297 26.7435 25.1786V19.7619C26.7435 18.8108 25.9697 18.0369 25.0185 18.0369H16.3519C15.4007 18.0369 14.6269 18.8108 14.6269 19.7619V25.1786C14.6269 26.1297 15.4007 26.9036 16.3519 26.9036ZM15.9102 19.7619C15.9102 19.5183 16.1091 19.3203 16.3519 19.3203H25.0185C25.2614 19.3203 25.4602 19.5183 25.4602 19.7619V25.1786C25.4602 25.4222 25.2614 25.6202 25.0185 25.6202H16.3519C16.1091 25.6202 15.9102 25.4222 15.9102 25.1786V19.7619ZM16.3519 16.0704H25.0185C25.9697 16.0704 26.7435 15.2965 26.7435 14.3454V2.42871C26.7435 1.47757 25.9697 0.703711 25.0185 0.703711H16.3519C15.4007 0.703711 14.6269 1.47757 14.6269 2.42871V14.3454C14.6269 15.2965 15.4007 16.0704 16.3519 16.0704ZM15.9102 2.42871C15.9102 2.18507 16.1091 1.98704 16.3519 1.98704H25.0185C25.2614 1.98704 25.4602 2.18507 25.4602 2.42871V14.3454C25.4602 14.589 25.2614 14.787 25.0185 14.787H16.3519C16.1091 14.787 15.9102 14.589 15.9102 14.3454V2.42871Z" fill="white" stroke="white" stroke-width="0.2"/>
</svg>
