<svg width="17" height="21" viewBox="0 0 17 21" fill="none" xmlns="http://www.w3.org/2000/svg">
<path d="M15.2081 4.28109C13.6983 2.07133 11.3055 0.803711 8.64379 0.803711C5.98203 0.803711 3.58926 2.07133 2.07948 4.28109C0.577124 6.47969 0.230224 9.26316 1.14968 11.7223C1.39561 12.3939 1.78654 13.0464 2.30885 13.6578L8.11735 20.5575C8.24872 20.7137 8.44119 20.8037 8.64379 20.8037C8.84638 20.8037 9.03885 20.7138 9.17022 20.5575L14.9771 13.6596C15.5017 13.0447 15.8922 12.393 16.136 11.7268C17.0574 9.26316 16.7104 6.47969 15.2081 4.28109ZM14.8411 11.237C14.6531 11.751 14.346 12.2592 13.9291 12.748C13.9279 12.7491 13.9267 12.7503 13.9258 12.7517L8.64379 19.0259L3.35851 12.7478C2.94177 12.2594 2.63473 11.7513 2.44481 11.2324C1.68442 9.19859 1.97299 6.89719 3.21698 5.07645C4.46487 3.24988 6.44299 2.2023 8.64379 2.2023C10.8445 2.2023 12.8224 3.24984 14.0704 5.07645C15.3146 6.89719 15.6034 9.19859 14.8411 11.237Z" fill="#D2374A"/>
<path d="M8.64377 4.95294C6.50868 4.95294 4.77144 6.70958 4.77144 8.86903C4.77144 11.0285 6.50845 12.7851 8.64377 12.7851C10.7791 12.7851 12.5161 11.0285 12.5161 8.86903C12.5161 6.70981 10.7789 4.95294 8.64377 4.95294ZM8.64377 11.3865C7.27116 11.3865 6.1544 10.2571 6.1544 8.86899C6.1544 7.48087 7.27116 6.35149 8.64377 6.35149C10.0164 6.35149 11.1331 7.48087 11.1331 8.86899C11.1331 10.2571 10.0164 11.3865 8.64377 11.3865Z" fill="#D2374A"/>
</svg>
