<svg width="21" height="27" viewBox="0 0 21 27" fill="none" xmlns="http://www.w3.org/2000/svg">
<path d="M14.9805 12.649L14.9805 12.649C14.7639 12.5469 14.506 12.5906 14.3359 12.7586L14.3359 12.7586C13.2231 13.8581 11.9462 14.4328 10.6436 14.4328C9.34085 14.4328 8.06415 13.8581 6.95208 12.7587C6.78196 12.5905 6.52387 12.5467 6.30734 12.6489C4.60808 13.4504 3.16975 14.7043 2.14804 16.2751C1.09837 17.8888 0.543555 19.7611 0.543555 21.6892V21.6973C0.543555 21.8566 0.61152 22.0084 0.730272 22.1152L0.730295 22.1152C3.44935 24.5583 6.97006 25.9037 10.6436 25.9037C14.317 25.9037 17.8377 24.5583 20.5568 22.1152L20.5568 22.1152C20.6756 22.0084 20.7436 21.8567 20.7436 21.6973V21.6892C20.7437 19.7611 20.189 17.8888 19.1395 16.2752C18.1179 14.7043 16.6798 13.4505 14.9805 12.649ZM10.6439 13.8859C12.1819 13.8859 13.6689 12.9615 14.8367 11.3127C15.8671 9.85796 16.4843 8.0573 16.4843 6.49115C16.4844 3.29901 13.8635 0.703711 10.6439 0.703711C7.42426 0.703711 4.80344 3.29901 4.80344 6.49115C4.80344 8.0573 5.42066 9.85796 6.45102 11.3127C7.61881 12.9615 9.10585 13.8859 10.6439 13.8859ZM10.6439 1.83113C13.2386 1.83113 15.3482 3.92259 15.3482 6.49115C15.3482 7.8061 14.7975 9.40749 13.9073 10.6644C12.9559 12.0076 11.7633 12.7585 10.6439 12.7585C9.52448 12.7585 8.33185 12.0076 7.38043 10.6644C6.49026 9.40749 5.9395 7.8061 5.9395 6.49115C5.9395 3.92259 8.0491 1.83113 10.6439 1.83113ZM10.6436 24.7764C7.33723 24.7764 4.16537 23.5958 1.68293 21.4471C1.72709 19.8219 2.21562 18.2501 3.10254 16.8865C3.93959 15.5998 5.09136 14.5525 6.44958 13.8393C7.70409 14.9642 9.14657 15.5602 10.6436 15.5602C12.1404 15.5602 13.5832 14.9641 14.8383 13.8393C16.1964 14.5524 17.3481 15.5997 18.185 16.8865C19.0717 18.2499 19.5601 19.8217 19.6043 21.447C17.1219 23.5957 13.95 24.7764 10.6436 24.7764Z" fill="#B4B4B4" stroke="#B4B4B4" stroke-width="0.2"/>
</svg>
